<?xml version="1.0" encoding="UTF-8"?>
<!DOCTYPE svg PUBLIC "-//W3C//DTD SVG 1.1//EN" "http://www.w3.org/Graphics/SVG/1.1/DTD/svg11.dtd">
<!-- Creator: CorelDRAW 2019 (64 Bit) -->
<svg xmlns="http://www.w3.org/2000/svg" xml:space="preserve" width="194.204mm" height="30.7994mm" version="1.1" style="shape-rendering:geometricPrecision; text-rendering:geometricPrecision; image-rendering:optimizeQuality; fill-rule:evenodd; clip-rule:evenodd"
viewBox="0 0 19406.17 3077.68"
 xmlns:xlink="http://www.w3.org/1999/xlink">
 <defs>
  <style type="text/css">
   <![CDATA[
    .fil4 {fill:none}
    .fil3 {fill:#FEFEFE;fill-rule:nonzero}
    .fil2 {fill:#F58634;fill-rule:nonzero}
    .fil0 {fill:#3262AA;fill-rule:nonzero}
    .fil1 {fill:#2E4660;fill-rule:nonzero}
   ]]>
  </style>
 </defs>
 <g id="Camada_x0020_1">
  <metadata id="CorelCorpID_0Corel-Layer"/>
  <g id="_2671595890224">
   <g>
    <g>
     <path class="fil0" d="M11513.36 2771.94l170.61 -170.6c13.47,-13.48 13.47,-35.33 0,-48.8 -13.48,-13.47 -35.33,-13.47 -48.8,0l-170.61 170.6c-13.48,13.48 -13.48,35.32 0,48.8 13.48,13.48 35.33,13.48 48.8,0z"/>
     <path class="fil0" d="M10992.26 2250.84l170.59 -170.59c13.48,-13.48 13.48,-35.33 0,-48.81 -13.47,-13.47 -35.31,-13.47 -48.78,0l-170.61 170.6c-13.46,13.47 -13.46,35.32 0,48.8 13.48,13.48 35.33,13.48 48.8,0z"/>
     <path class="fil0" d="M11192.21 2440.23l56.09 56.08c2.9,2.92 7.45,3.4 10.91,1.16l179.02 -116.4c4.65,-3.03 5.34,-9.55 1.41,-13.48l-56.08 -56.08c-2.91,-2.93 -7.46,-3.4 -10.91,-1.15l-179.02 116.39c-4.65,3.03 -5.34,9.55 -1.42,13.48z"/>
     <path class="fil0" d="M11242.95 2170.88l-44.03 -44.01c-3.4,-3.41 -8.92,-3.41 -12.34,0l-147.69 147.7c-3.42,3.41 -3.42,8.93 0,12.33l12.7 12.71c2.92,2.92 7.47,3.39 10.92,1.15l179.02 -116.39c4.64,-3.03 5.34,-9.56 1.42,-13.49z"/>
     <path class="fil0" d="M11093.86 2341.89l56.08 56.08c2.92,2.9 7.47,3.37 10.92,1.13l179.02 -116.39c4.66,-3.01 5.35,-9.56 1.42,-13.49l-56.08 -56.06c-2.92,-2.92 -7.46,-3.39 -10.94,-1.14l-179 116.38c-4.66,3.03 -5.34,9.56 -1.42,13.49z"/>
     <path class="fil0" d="M11538 2465.92l-56.08 -56.07c-2.92,-2.92 -7.47,-3.41 -10.93,-1.15l-179 116.38c-4.67,3.03 -5.36,9.57 -1.43,13.48l56.08 56.09c2.92,2.92 7.46,3.39 10.92,1.15l179.02 -116.38c4.64,-3.04 5.33,-9.57 1.42,-13.5z"/>
     <path class="fil0" d="M11388.9 2636.93l44.04 44.03c3.41,3.41 8.93,3.41 12.35,0l147.69 -147.7c3.42,-3.41 3.42,-8.93 0,-12.35l-12.71 -12.71c-2.92,-2.92 -7.48,-3.39 -10.94,-1.14l-179 116.38c-4.66,3.02 -5.34,9.56 -1.43,13.49z"/>
     <path class="fil1" d="M9245.44 1727.27c-422.58,-513.32 -10.48,-984.89 94.92,-1092.29 7.24,-7.37 16.24,-16.28 26.74,-26.23 -132.39,145.21 -462.72,587 -69.18,1065.05 438.97,533.24 1114.15,265.38 1507.85,530.12l0.5 0.32c14.2,9.27 17.48,28.49 5.6,40.6l-7.02 7.14c-13.81,14.09 -35.34,16.32 -51.54,5.44 -393.72,-264.76 -1068.9,3.09 -1507.86,-530.15z"/>
     <path class="fil0" d="M10220.95 680.23c-11.85,-11.85 -11.85,-31.09 0,-42.94 11.86,-11.85 31.09,-11.85 42.94,0 11.86,11.85 11.86,31.09 0,42.94 -11.85,11.85 -31.08,11.85 -42.94,0zm221.53 178.59c11.86,-11.85 31.08,-11.85 42.93,0 11.85,11.85 11.85,31.09 0,42.94 -11.85,11.85 -31.07,11.85 -42.93,0 -11.85,-11.87 -11.85,-31.09 0,-42.94zm25.41 196.12c11.85,-11.85 31.07,-11.85 42.94,0.01 11.84,11.84 11.84,31.07 0,42.92 -11.87,11.87 -31.09,11.87 -42.94,0 -11.85,-11.85 -11.85,-31.08 0,-42.93zm-443.05 -400.11c-11.86,-11.86 -11.86,-31.08 0,-42.95 11.85,-11.85 31.09,-11.85 42.94,0 11.85,11.87 11.85,31.09 0,42.95 -11.85,11.85 -31.09,11.85 -42.94,0zm221.53 178.58c11.85,-11.85 31.07,-11.85 42.94,0 11.85,11.87 11.85,31.09 0,42.95 -11.87,11.85 -31.09,11.85 -42.94,0 -11.85,-11.86 -11.85,-31.08 0,-42.95zm319.07 -194.67c24.26,27.92 48.26,58.28 68.49,90.33 20.25,32.14 36.84,66.06 52.01,100.35 15.12,34.34 28.13,69.42 38.62,105.15 10.74,35.62 20.07,71.58 27.73,107.78 14.8,72.56 24.54,145.76 29,219.16 4.38,73.35 5.1,146.9 -1.8,219.89 -13.69,-145.49 -34.65,-289.5 -71.51,-428.57 -36.78,-138.53 -88.97,-273.96 -182.15,-379.83 -46.54,-53.65 -97.7,-103.21 -155.18,-144.11 -57.72,-40.26 -120.98,-72.97 -188.96,-92.21 -33.94,-9.51 -68.74,-16.56 -104.09,-20.02 -35.34,-3.53 -71.12,-3.69 -106.88,-1.42 -71.59,4.83 -142.69,21.43 -211.55,45.83 64.92,-33.46 135.48,-57.78 208.96,-68.95 73.35,-11.48 149.69,-9.57 223.14,7.37 73.47,16.96 143.65,48.24 206.34,90.04 31.52,20.72 60.95,44.28 89.13,69.07 28.34,24.72 53.71,52.36 78.7,80.13zm-693.78 -9.32c-11.86,11.85 -31.07,11.85 -42.94,0 -11.85,-11.85 -11.85,-31.08 0,-42.93 11.87,-11.86 31.08,-11.86 42.94,0 11.86,11.85 11.86,31.08 0,42.93zm221.52 221.53c-11.85,11.85 -31.07,11.85 -42.93,0 -11.85,-11.85 -11.85,-31.08 0,-42.94 11.86,-11.85 31.08,-11.85 42.93,0 11.86,11.86 11.86,31.09 0,42.94zm221.53 221.53c-11.85,11.85 -31.08,11.85 -42.94,0 -11.84,-11.87 -11.84,-31.09 0,-42.94 11.86,-11.85 31.09,-11.85 42.94,0 11.85,11.85 11.85,31.07 0,42.94zm221.53 221.52c-11.85,11.86 -31.09,11.86 -42.94,0 -11.85,-11.86 -11.85,-31.08 0,-42.93 11.85,-11.85 31.09,-11.85 42.94,0 11.85,11.85 11.85,31.07 0,42.93zm276.93 366.06c15.93,93.64 44.74,194.06 66.41,262.64 10.9,34.51 -21.56,66.98 -56.08,56.07 -68.57,-21.66 -169,-50.47 -262.63,-66.4 -35.66,-6.08 -49.42,-50.08 -23.84,-75.66l100.21 -100.21 0.06 -0.06 100.21 -100.22c25.58,-25.57 69.61,-11.83 75.66,23.84zm-1282.92 -689.19c-11.87,11.84 -31.09,11.84 -42.95,0 -11.85,-11.87 -11.85,-31.09 0,-42.94 11.86,-11.85 31.08,-11.85 42.95,0 11.85,11.85 11.85,31.08 0,42.94zm221.51 221.52c-11.85,11.85 -31.07,11.85 -42.92,0 -11.86,-11.85 -11.86,-31.08 0,-42.93 11.84,-11.85 31.07,-11.85 42.92,0 11.86,11.85 11.86,31.08 0,42.93zm221.53 221.53c-11.85,11.85 -31.07,11.85 -42.94,0 -11.85,-11.85 -11.85,-31.08 0,-42.94 11.85,-11.86 31.09,-11.86 42.94,0 11.86,11.86 11.86,31.09 0,42.94zm221.53 221.53c-11.85,11.85 -31.07,11.85 -42.94,0 -11.85,-11.85 -11.85,-31.09 0,-42.94 11.87,-11.85 31.09,-11.85 42.94,0 11.85,11.85 11.85,31.09 0,42.94zm-639.17 -468.45c-11.85,11.85 -31.08,11.85 -42.93,0 -11.85,-11.87 -11.85,-31.09 0,-42.94 11.85,-11.86 31.08,-11.86 42.93,-0.01 11.86,11.86 11.86,31.08 0,42.95zm221.53 221.51c-11.85,11.87 -31.08,11.87 -42.94,0 -11.86,-11.85 -11.86,-31.08 0,-42.92 11.86,-11.87 31.09,-11.87 42.94,0 11.85,11.84 11.85,31.07 0,42.92zm221.53 221.53c-11.85,11.86 -31.09,11.86 -42.94,0 -11.86,-11.85 -11.86,-31.07 0,-42.94 11.85,-11.85 31.09,-11.85 42.94,0 11.85,11.87 11.85,31.09 0,42.94zm-417.65 -246.93c-11.85,11.86 -31.07,11.86 -42.94,0 -11.85,-11.86 -11.85,-31.08 0,-42.93 11.87,-11.85 31.09,-11.85 42.94,0 11.87,11.85 11.87,31.07 0,42.93zm221.53 221.53c-11.85,11.85 -31.07,11.85 -42.94,0 -11.85,-11.86 -11.85,-31.08 0,-42.93 11.87,-11.87 31.09,-11.87 42.94,0 11.85,11.85 11.85,31.08 0,42.93zm323.9 -188.25c11.86,-11.85 31.08,-11.85 42.93,0 11.86,11.87 11.86,31.09 0,42.94 -11.85,11.85 -31.07,11.85 -42.93,0 -11.86,-11.85 -11.86,-31.07 0,-42.94zm-221.52 -221.52c11.85,-11.86 31.07,-11.86 42.93,0 11.85,11.86 11.85,31.08 0,42.93 -11.86,11.86 -31.08,11.86 -42.93,0 -11.87,-11.85 -11.87,-31.07 0,-42.93zm-221.53 -221.52c11.85,-11.86 31.07,-11.86 42.94,0 11.84,11.85 11.84,31.07 0,42.92 -11.87,11.86 -31.09,11.86 -42.94,0 -11.85,-11.85 -11.85,-31.07 0,-42.92zm639.16 468.45c11.85,-11.85 31.09,-11.85 42.94,0 11.86,11.85 11.86,31.07 0,42.94 -11.85,11.85 -31.09,11.85 -42.94,0 -11.85,-11.87 -11.85,-31.09 0,-42.94zm-221.53 -221.52c11.86,-11.86 31.09,-11.86 42.94,0 11.87,11.84 11.87,31.08 0,42.93 -11.85,11.85 -31.08,11.85 -42.94,0 -11.85,-11.85 -11.85,-31.09 0,-42.93zm-221.52 -221.53c11.85,-11.85 31.08,-11.85 42.93,0 11.87,11.85 11.87,31.08 0,42.93 -11.85,11.85 -31.08,11.85 -42.93,0 -11.85,-11.85 -11.85,-31.08 0,-42.93zm-221.53 -221.53c11.86,-11.85 31.08,-11.85 42.94,0 11.84,11.85 11.84,31.08 0,42.93 -11.86,11.85 -31.08,11.85 -42.94,0 -11.85,-11.85 -11.85,-31.08 0,-42.93zm639.17 468.45c11.86,-11.85 31.08,-11.85 42.94,0 11.85,11.86 11.85,31.09 0,42.93 -11.86,11.86 -31.08,11.86 -42.94,0.02 -11.86,-11.86 -11.86,-31.09 0,-42.95zm-221.52 -221.53c11.85,-11.85 31.07,-11.85 42.93,0 11.86,11.87 11.86,31.09 0,42.94 -11.86,11.86 -31.08,11.86 -42.93,0 -11.85,-11.85 -11.85,-31.07 0,-42.94zm-221.53 -221.51c11.85,-11.87 31.08,-11.87 42.94,0 11.85,11.85 11.85,31.07 0,42.92 -11.86,11.87 -31.09,11.87 -42.94,0 -11.85,-11.85 -11.85,-31.07 0,-42.92zm673.11 -301.44c-497.6,-417.99 -952.05,-13.7 -1055.49,89.76 -103.46,103.44 -507.75,557.89 -89.75,1055.49 434.19,516.89 1098.31,260.27 1487.02,517.48 16.01,10.59 37.2,8.51 50.77,-5.07l119.89 -119.89c13.56,-13.55 15.64,-34.76 5.07,-50.75 -257.23,-388.71 -0.6,-1052.84 -517.5,-1487.03z"/>
    </g>
    <path class="fil2" d="M10018.47 1532.8c-59.67,0 -117.56,-11.7 -172.07,-34.75 -52.64,-22.26 -99.92,-54.14 -140.5,-94.73 -40.59,-40.58 -72.46,-87.86 -94.73,-140.5 -23.06,-54.51 -34.74,-112.41 -34.74,-172.07 0,-59.67 11.68,-117.55 34.74,-172.07 22.27,-52.63 54.14,-99.92 94.73,-140.49 40.58,-40.6 87.86,-72.47 140.5,-94.73 54.51,-23.05 112.41,-34.75 172.07,-34.75 59.67,0 117.55,11.7 172.08,34.75 52.63,22.26 99.89,54.13 140.49,94.73 40.59,40.57 72.46,87.86 94.72,140.49 23.06,54.52 34.74,112.41 34.74,172.07 0,59.67 -11.68,117.56 -34.74,172.07 -22.26,52.64 -54.13,99.92 -94.72,140.5 -40.6,40.59 -87.86,72.47 -140.49,94.73 -54.53,23.05 -112.42,34.75 -172.08,34.75z"/>
    <path class="fil3" d="M9787.07 1148.29c23.84,38.75 65.04,99.87 96.91,140.02 15.03,18.96 41.72,20.7 59.26,4.06 100.91,-95.77 194.55,-216.58 306.68,-383.88 6.52,-9.68 3.24,-22.89 -7.04,-28.41l0 0c-7.86,-4.22 -17.59,-2.64 -23.71,3.84 -124.41,131.72 -188.18,194.34 -311.96,297.32 0,0 -39.04,-24.79 -86.17,-62.84 -10.11,-8.16 -24.98,-6.33 -32.79,4.07l0 0c-5.66,7.54 -6.13,17.79 -1.18,25.83z"/>
    <path class="fil1" d="M1211 881.38c0,133.92 -37.68,239.06 -112.35,315.1 -76.37,73.64 -181.52,110.63 -315.09,110.63l-110.29 0 0 509.64c0,21.23 0.34,40.76 1.71,58.23l-302.77 0c2.4,-17.47 3.77,-37.68 3.77,-60.29l0 -1328.54c0,-17.47 -1.37,-35.96 -3.77,-56.17l391.13 0c141.8,0 252.08,39.39 331.2,118.5 77.74,80.15 116.45,191.12 116.45,332.91zm-317.16 -9.93c0,-82.88 -16.1,-136.31 -48.29,-160.63 -29.45,-19.86 -86.65,-30.48 -172.27,-31.85l0 395.24c82.89,-2.74 141.11,-17.47 174.33,-44.18 30.83,-28.09 46.24,-80.83 46.24,-158.58z"/>
    <path id="1" class="fil1" d="M2288.49 1874.97l-302.77 0c-1.37,-17.47 -4.8,-39.39 -10.28,-66.45l-38.01 -192.48 -256.87 0 -40.07 192.48c-5.49,27.06 -8.9,48.98 -10.28,66.45l-302.77 0 341.13 -1449.11 278.8 0 341.13 1449.11zm-395.24 -503.82l-84.26 -381.2 -86.31 381.2 170.56 0z"/>
    <path id="2" class="fil1" d="M3296.11 1150.59c0,482.93 -193.52,724.39 -580.19,724.39l-292.83 0c2.74,-18.84 4.11,-37.68 4.11,-56.17l0 -1332.66c0,-17.47 -1.37,-35.96 -4.11,-56.17l296.94 0c383.95,0 576.09,240.09 576.09,720.61zm-313.04 31.86c0,-168.51 -8.91,-278.8 -26.38,-330.86 -34.58,-107.2 -115.42,-163.37 -242.82,-168.85l0 947.34c117.81,-7.87 194.88,-58.23 230.84,-150.36 25.68,-57.54 38.36,-156.85 38.36,-297.28z"/>
    <path id="3" class="fil1" d="M4261.26 1877.02l-820.63 0c2.4,-22.94 3.77,-42.81 3.77,-60.28l0 -1342.58c0,-18.85 -0.68,-37.33 -2.05,-56.17l814.79 0 0 246.94c-29.45,-4.12 -56.85,-6.17 -82.2,-6.17l-445.58 0 0 339.07 477.78 0 0 251.05 -477.78 0 0 385.31 439.77 0c23.97,0 54.8,-1.37 92.13,-4.11l0 246.94z"/>
    <path id="4" class="fil1" d="M5298.68 1874.97l-840.83 0c2.74,-20.22 4.11,-38.02 4.11,-54.12l0 -1330.6c0,-21.57 -1.37,-41.44 -4.11,-60.28l305.17 0c-4.11,20.21 -6.17,39.39 -6.17,58.23l0 1129.9 455.52 0c24.32,0 53.09,-1.38 86.32,-4.12l0 260.99z"/>
    <path class="fil0" d="M6910.28 1872.07l-302.77 0c-1.37,-17.47 -4.8,-39.39 -10.28,-66.45l-38.01 -192.48 -256.87 0 -40.07 192.48c-5.49,27.06 -8.9,48.98 -10.28,66.45l-302.77 0 341.13 -1449.11 278.8 0 341.13 1449.11zm-395.24 -503.82l-84.26 -381.2 -86.31 381.2 170.56 0z"/>
    <path id="1" class="fil0" d="M7887.76 878.47c0,133.92 -37.68,239.06 -112.35,315.1 -76.37,73.64 -181.52,110.63 -315.09,110.63l-110.29 0 0 509.64c0,21.23 0.34,40.76 1.71,58.23l-302.77 0c2.4,-17.47 3.77,-37.68 3.77,-60.29l0 -1328.54c0,-17.47 -1.37,-35.96 -3.77,-56.17l391.13 0c141.8,0 252.08,39.39 331.2,118.5 77.74,80.15 116.45,191.12 116.45,332.91zm-317.16 -9.93c0,-82.88 -16.1,-136.31 -48.29,-160.63 -29.45,-19.86 -86.65,-30.48 -172.27,-31.85l0 395.24c82.89,-2.74 141.11,-17.47 174.33,-44.18 30.83,-28.09 46.24,-80.83 46.24,-158.58z"/>
    <path id="2" class="fil0" d="M8915.24 878.47c0,133.92 -37.68,239.06 -112.35,315.1 -76.37,73.64 -181.52,110.63 -315.09,110.63l-110.29 0 0 509.64c0,21.23 0.34,40.76 1.71,58.23l-302.77 0c2.4,-17.47 3.77,-37.68 3.77,-60.29l0 -1328.54c0,-17.47 -1.37,-35.96 -3.77,-56.17l391.13 0c141.8,0 252.08,39.39 331.2,118.5 77.74,80.15 116.45,191.12 116.45,332.91zm-317.16 -9.93c0,-82.88 -16.1,-136.31 -48.29,-160.63 -29.45,-19.86 -86.65,-30.48 -172.27,-31.85l0 395.24c82.89,-2.74 141.11,-17.47 174.33,-44.18 30.83,-28.09 46.24,-80.83 46.24,-158.58z"/>
    <path class="fil0" d="M11576.79 1842.95l-309.27 0c2.74,-17.47 4.11,-35.61 4.11,-54.45l0 -1332.32c0,-20.21 -1.37,-38.7 -4.11,-56.17l309.27 0c-2.74,17.47 -4.11,35.96 -4.11,56.17l0 1332.32c0,17.47 1.37,35.61 4.11,54.45z"/>
    <path id="1" class="fil0" d="M12861.15 400.01c-2.74,19.87 -4.11,40.08 -4.11,60.29l0 1384.71 -254.82 0 -294.88 -738.77 0 682.26c0,20.21 0.68,39.04 1.71,56.51l-274.68 0c2.74,-18.84 3.77,-37.67 3.77,-56.51l0 -1388.49 269.2 0 280.84 738.43 0 -682.26c0,-17.47 -1.37,-36.3 -4.11,-56.17l277.08 0z"/>
    <path id="2" class="fil0" d="M13916.72 654.83c-34.93,-2.74 -67.47,-4.11 -98.3,-4.11l-196.6 0 0 1134.01c0,17.47 1.03,35.95 3.77,56.17l-308.93 0c2.74,-18.84 4.12,-37.68 4.12,-56.17l0 -1134.01 -200.7 0c-25.69,0 -55.49,1.37 -90.42,4.11l0 -258.93 887.07 0 0 258.93z"/>
    <path id="3" class="fil0" d="M14954.14 1845.01l-224.69 0c2.75,-17.47 4.12,-36.3 4.12,-56.51l0 -621.97 -160.63 678.48 -148.64 0 -158.58 -692.53 0 636.02c0,20.21 1.37,39.04 4.12,56.51l-224.69 0c1.37,-18.84 2.06,-37.67 2.06,-56.51l0 -1388.49 304.83 0 146.58 963.1 148.65 -963.1 302.76 0 0 1388.49c0,18.84 1.38,37.67 4.12,56.51z"/>
    <path id="4" class="fil0" d="M15925.46 1842.95l-820.63 0c2.4,-22.94 3.77,-42.81 3.77,-60.28l0 -1342.58c0,-18.85 -0.68,-37.33 -2.05,-56.17l814.79 0 0 246.94c-29.45,-4.12 -56.85,-6.17 -82.2,-6.17l-445.58 0 0 339.07 477.78 0 0 251.05 -477.78 0 0 385.31 439.77 0c23.97,0 54.8,-1.37 92.13,-4.11l0 246.94z"/>
    <path id="5" class="fil0" d="M16971.09 400.01c-2.74,19.87 -4.11,40.08 -4.11,60.29l0 1384.71 -254.82 0 -294.88 -738.77 0 682.26c0,20.21 0.68,39.04 1.71,56.51l-274.68 0c2.74,-18.84 3.77,-37.67 3.77,-56.51l0 -1388.49 269.2 0 280.84 738.43 0 -682.26c0,-17.47 -1.37,-36.3 -4.11,-56.17l277.08 0z"/>
    <path id="6" class="fil0" d="M18026.66 654.83c-34.93,-2.74 -67.47,-4.11 -98.3,-4.11l-196.6 0 0 1134.01c0,17.47 1.03,35.95 3.77,56.17l-308.93 0c2.74,-18.84 4.12,-37.68 4.12,-56.17l0 -1134.01 -200.7 0c-25.69,0 -55.49,1.37 -90.42,4.11l0 -258.93 887.07 0 0 258.93z"/>
    <path id="7" class="fil0" d="M19033.94 1505.59c0,123.3 -40.76,221.59 -122.28,295.22 -81.51,73.3 -184.6,110.29 -309.27,110.29 -264.75,0 -400.38,-159.26 -407.22,-477.78l315.09 0c-2.74,18.84 -4.11,38.35 -4.11,58.22 0,40.07 7.53,76.38 22.26,108.57 18.5,41.45 45.9,61.99 82.2,61.99 78.77,0 118.5,-50.68 118.5,-152.41 0,-88.37 -56.86,-180.5 -170.56,-277.08 -140.77,-122.96 -215.43,-189.06 -225.01,-198.65 -76.03,-80.14 -114.4,-163.71 -114.4,-250.71 0,-117.82 35.61,-213.37 106.51,-287.01 69.53,-72.27 163.03,-108.23 280.85,-108.23 247.62,0 383.25,133.57 407.57,401.07l-303.12 0c1.38,-5.14 2.06,-10.62 2.06,-15.76 0,-34.93 -6.84,-65.76 -20.21,-92.47 -16.1,-33.57 -40.76,-50 -74.33,-50 -64.04,0 -96.24,35.96 -96.24,108.23 0,61.64 31.51,120.55 94.19,176.72 6.84,5.14 63.7,51.38 170.9,138.37 164.4,134.95 246.6,285.65 246.6,451.42z"/>
   </g>
   <rect class="fil4" y="-0" width="19406.17" height="3077.68"/>
  </g>
 </g>
</svg>
