<svg width="50" height="51" viewBox="0 0 50 51" fill="none" xmlns="http://www.w3.org/2000/svg">
<line x1="0.684321" y1="-0.684321" x2="16.7701" y2="-0.684321" transform="matrix(-0.647755 -0.761848 0.892686 -0.450679 49.9998 50)" stroke="#006CCF" stroke-width="1.36864" stroke-linecap="round"/>
<path d="M39.2031 39.7083L31.119 35.6613L38.2618 32.3152L39.2031 39.7083Z" stroke="#006CCF" stroke-width="1.09491"/>
<path d="M36.2592 14.8093C39.4278 18.8257 40.9091 23.1 40.7548 26.7583C40.6005 30.4168 38.8141 33.4414 35.4717 35.0072C32.1293 36.5729 27.8224 36.4027 23.5365 34.8242C19.2508 33.2458 15.0083 30.265 11.8397 26.2486C8.67105 22.2322 7.18976 17.9579 7.34406 14.2996C7.49835 10.6411 9.28477 7.6165 12.6272 6.05075C15.9696 4.485 20.2765 4.65521 24.5623 6.23368C28.848 7.81208 33.0905 10.7929 36.2592 14.8093Z" fill="#006CCF" stroke="#006CCF" stroke-width="0.547457"/>
<ellipse cx="23.8174" cy="20.6536" rx="1.78519" ry="1.37561" fill="white"/>
<path d="M38.6359 25.3629C38.7087 25.3831 38.7937 25.344 38.8257 25.2755C38.8577 25.207 38.8246 25.1351 38.7517 25.1149L38.6359 25.3629ZM23.7593 21.2361L38.6359 25.3629L38.7517 25.1149L23.8752 20.9881L23.7593 21.2361Z" fill="white"/>
<path d="M23.8173 20.6536V13.317" stroke="white" stroke-width="0.273728" stroke-linecap="round"/>
</svg>
