<?xml version="1.0" encoding="UTF-8"?>
<!DOCTYPE svg PUBLIC "-//W3C//DTD SVG 1.1//EN" "http://www.w3.org/Graphics/SVG/1.1/DTD/svg11.dtd">
<!-- Creator: CorelDRAW 2019 (64 Bit) -->
<svg xmlns="http://www.w3.org/2000/svg" xml:space="preserve" width="69.1837mm" height="65.2743mm" version="1.1" style="shape-rendering:geometricPrecision; text-rendering:geometricPrecision; image-rendering:optimizeQuality; fill-rule:evenodd; clip-rule:evenodd"
viewBox="0 0 6904.13 6513.99"
 xmlns:xlink="http://www.w3.org/1999/xlink">
 <defs>
  <style type="text/css">
   <![CDATA[
    .fil3 {fill:#FEFEFE;fill-rule:nonzero}
    .fil2 {fill:#4CB369;fill-rule:nonzero}
    .fil0 {fill:#3262AA;fill-rule:nonzero}
    .fil1 {fill:#2E4660;fill-rule:nonzero}
   ]]>
  </style>
 </defs>
 <g id="Camada_x0020_1">
  <metadata id="CorelCorpID_0Corel-Layer"/>
  <g id="_2672042641008">
   <g>
    <path class="fil0" d="M6430.7 6487.5l446.97 -446.97c35.28,-35.31 35.28,-92.55 0,-127.86 -35.32,-35.28 -92.56,-35.28 -127.87,0l-446.97 446.96c-35.31,35.32 -35.31,92.56 0,127.87 35.32,35.32 92.56,35.32 127.87,0z"/>
    <path class="fil0" d="M5065.52 5122.27l446.92 -446.93c35.31,-35.31 35.31,-92.55 0,-127.87 -35.31,-35.31 -92.52,-35.31 -127.83,0l-446.96 446.94c-35.28,35.31 -35.28,92.55 0,127.86 35.31,35.32 92.56,35.32 127.87,0z"/>
    <path class="fil0" d="M5589.33 5618.46l146.95 146.91c7.6,7.64 19.54,8.91 28.58,3.03l469 -304.95c12.18,-7.92 13.98,-25.03 3.7,-35.31l-146.92 -146.92c-7.63,-7.67 -19.57,-8.9 -28.58,-3.02l-469 304.95c-12.18,7.91 -13.98,25.03 -3.73,35.31z"/>
    <path class="fil0" d="M5722.27 4912.81l-115.33 -115.29c-8.91,-8.94 -23.38,-8.94 -32.32,0l-386.93 386.94c-8.94,8.94 -8.94,23.4 0,32.31l33.26 33.3c7.64,7.64 19.58,8.87 28.62,2.99l469 -304.91c12.14,-7.95 13.98,-25.07 3.7,-35.35z"/>
    <path class="fil0" d="M5331.69 5360.83l146.92 146.91c7.63,7.6 19.57,8.84 28.62,2.95l468.97 -304.91c12.21,-7.88 14.01,-25.06 3.72,-35.35l-146.91 -146.87c-7.63,-7.64 -19.57,-8.87 -28.66,-2.99l-468.96 304.91c-12.18,7.92 -13.98,25.07 -3.7,35.35z"/>
    <path class="fil0" d="M6495.23 5685.77l-146.92 -146.91c-7.63,-7.64 -19.57,-8.91 -28.62,-2.99l-468.96 304.91c-12.22,7.92 -14.02,25.07 -3.73,35.31l146.91 146.95c7.64,7.64 19.57,8.87 28.62,2.99l469 -304.91c12.14,-7.95 13.94,-25.07 3.7,-35.35z"/>
    <path class="fil0" d="M6104.63 6133.8l115.36 115.33c8.94,8.94 23.41,8.94 32.35,0l386.94 -386.94c8.94,-8.94 8.94,-23.41 0,-32.35l-33.3 -33.31c-7.64,-7.63 -19.61,-8.87 -28.66,-2.98l-468.96 304.91c-12.18,7.91 -13.98,25.06 -3.73,35.35z"/>
    <path class="fil1" d="M489.14 3750.65c-1107.07,-1344.84 -27.45,-2580.25 248.7,-2861.61 18.97,-19.33 42.52,-42.64 70.06,-68.73 -346.84,380.44 -1212.25,1537.84 -181.24,2790.25 1150.01,1396.97 2918.86,695.23 3950.3,1388.81l1.3 0.84c37.21,24.3 45.81,74.64 14.68,106.36l-18.41 18.73c-36.19,36.89 -92.59,42.73 -135.04,14.22 -1031.48,-693.61 -2800.32,8.09 -3950.34,-1388.88z"/>
    <path class="fil0" d="M3044.83 1007.58c-31.06,-31.06 -31.06,-81.43 0,-112.49 31.09,-31.05 81.43,-31.05 112.48,0 31.09,31.06 31.09,81.43 0,112.49 -31.05,31.05 -81.39,31.05 -112.48,0zm580.35 467.87c31.09,-31.06 81.43,-31.06 112.48,0 31.06,31.05 31.06,81.43 0,112.48 -31.05,31.06 -81.39,31.06 -112.48,0 -31.05,-31.09 -31.05,-81.43 0,-112.48zm66.57 513.78c31.06,-31.05 81.39,-31.05 112.49,0.04 31.05,31.02 31.05,81.39 0,112.44 -31.1,31.09 -81.43,31.09 -112.49,0 -31.05,-31.05 -31.05,-81.42 0,-112.48zm-1160.72 -1048.2c-31.09,-31.09 -31.09,-81.43 0,-112.52 31.06,-31.05 81.43,-31.05 112.49,0 31.05,31.09 31.05,81.43 0,112.52 -31.06,31.06 -81.43,31.06 -112.49,0zm580.36 467.85c31.05,-31.06 81.39,-31.06 112.48,0 31.06,31.09 31.06,81.43 0,112.52 -31.09,31.05 -81.43,31.05 -112.48,0 -31.06,-31.09 -31.06,-81.43 0,-112.52zm835.91 -509.99c63.55,73.13 126.43,152.66 179.41,236.65 53.05,84.18 96.53,173.07 136.28,262.88 39.61,89.98 73.69,181.87 101.18,275.48 28.13,93.33 52.56,187.53 72.63,282.38 38.79,190.08 64.32,381.87 75.97,574.17 11.48,192.14 13.37,384.86 -4.69,576.06 -35.87,-381.17 -90.79,-758.43 -187.35,-1122.76 -96.36,-362.93 -233.1,-717.73 -477.18,-995.11 -121.92,-140.54 -255.97,-270.38 -406.55,-377.54 -151.21,-105.47 -316.95,-191.17 -495.05,-241.58 -88.9,-24.92 -180.08,-43.37 -272.71,-52.42 -92.59,-9.25 -186.31,-9.68 -280.01,-3.73 -187.54,12.64 -373.81,56.15 -554.24,120.05 170.11,-87.63 354.94,-151.35 547.44,-180.64 192.14,-30.07 392.15,-25.07 584.57,19.33 192.47,44.43 376.34,126.39 540.57,235.9 82.56,54.29 159.66,116 233.52,180.96 74.25,64.75 140.72,137.16 206.19,209.93zm-1817.6 -24.43c-31.06,31.06 -81.39,31.06 -112.48,0 -31.06,-31.05 -31.06,-81.43 0,-112.48 31.09,-31.06 81.42,-31.06 112.48,0 31.09,31.05 31.09,81.43 0,112.48zm580.35 580.36c-31.05,31.05 -81.39,31.05 -112.48,0 -31.06,-31.06 -31.06,-81.43 0,-112.49 31.09,-31.05 81.43,-31.05 112.48,0 31.06,31.06 31.06,81.43 0,112.49zm580.36 580.35c-31.06,31.05 -81.43,31.05 -112.49,0 -31.05,-31.09 -31.05,-81.43 0,-112.48 31.06,-31.06 81.43,-31.06 112.49,0 31.05,31.05 31.05,81.39 0,112.48zm580.35 580.35c-31.05,31.06 -81.43,31.06 -112.48,0 -31.06,-31.09 -31.06,-81.42 0,-112.48 31.05,-31.05 81.43,-31.05 112.48,0 31.06,31.06 31.06,81.39 0,112.48zm725.5 958.99c41.72,245.34 117.2,508.39 173.99,688.07 28.55,90.41 -56.5,175.47 -146.92,146.88 -179.65,-56.74 -442.74,-132.23 -688.05,-173.94 -93.43,-15.92 -129.48,-131.21 -62.45,-198.24l262.53 -262.52 0.14 -0.14 262.53 -262.56c67.02,-67 182.35,-30.99 198.23,62.45zm-3361.03 -1805.57c-31.1,31.05 -81.43,31.05 -112.52,0 -31.06,-31.09 -31.06,-81.43 0,-112.48 31.09,-31.06 81.42,-31.06 112.52,0 31.05,31.05 31.05,81.42 0,112.48zm580.31 580.35c-31.05,31.06 -81.39,31.06 -112.44,0 -31.09,-31.05 -31.09,-81.42 0,-112.48 31.02,-31.05 81.39,-31.05 112.44,0 31.09,31.06 31.09,81.43 0,112.48zm580.36 580.36c-31.06,31.05 -81.39,31.05 -112.48,0 -31.06,-31.06 -31.06,-81.43 0,-112.49 31.05,-31.09 81.42,-31.09 112.48,0 31.09,31.06 31.09,81.43 0,112.49zm580.35 580.35c-31.05,31.06 -81.39,31.06 -112.48,0 -31.06,-31.05 -31.06,-81.43 0,-112.48 31.09,-31.06 81.43,-31.06 112.48,0 31.06,31.05 31.06,81.43 0,112.48zm-1674.5 -1227.25c-31.06,31.05 -81.43,31.05 -112.48,0 -31.06,-31.09 -31.06,-81.43 0,-112.48 31.05,-31.09 81.42,-31.09 112.48,-0.04 31.06,31.09 31.06,81.43 0,112.52zm580.35 580.32c-31.05,31.09 -81.42,31.09 -112.48,0 -31.09,-31.06 -31.09,-81.43 0,-112.45 31.06,-31.09 81.43,-31.09 112.48,0 31.06,31.02 31.06,81.39 0,112.45zm580.36 580.35c-31.06,31.09 -81.43,31.09 -112.48,0 -31.09,-31.05 -31.09,-81.39 0,-112.48 31.05,-31.06 81.42,-31.06 112.48,0 31.05,31.09 31.05,81.43 0,112.48zm-1094.17 -646.9c-31.06,31.06 -81.4,31.06 -112.49,0 -31.05,-31.09 -31.05,-81.43 0,-112.48 31.09,-31.06 81.43,-31.06 112.49,0 31.09,31.05 31.09,81.39 0,112.48zm580.35 580.36c-31.06,31.05 -81.39,31.05 -112.48,0 -31.06,-31.09 -31.06,-81.43 0,-112.49 31.09,-31.09 81.42,-31.09 112.48,0 31.05,31.06 31.05,81.43 0,112.49zm848.58 -493.19c31.06,-31.06 81.4,-31.06 112.45,0 31.09,31.09 31.09,81.43 0,112.48 -31.05,31.06 -81.39,31.06 -112.45,0 -31.09,-31.05 -31.09,-81.39 0,-112.48zm-580.35 -580.35c31.06,-31.06 81.39,-31.06 112.48,0 31.06,31.09 31.06,81.42 0,112.48 -31.09,31.09 -81.42,31.09 -112.48,0 -31.09,-31.06 -31.09,-81.39 0,-112.48zm-580.35 -580.32c31.05,-31.09 81.39,-31.09 112.48,0 31.05,31.05 31.05,81.39 0,112.44 -31.09,31.09 -81.43,31.09 -112.48,0 -31.06,-31.05 -31.06,-81.39 0,-112.44zm1674.5 1227.25c31.05,-31.06 81.43,-31.06 112.48,0 31.09,31.05 31.09,81.39 0,112.48 -31.05,31.06 -81.43,31.06 -112.48,0 -31.06,-31.09 -31.06,-81.43 0,-112.48zm-580.36 -580.35c31.06,-31.06 81.43,-31.06 112.49,0 31.09,31.05 31.09,81.42 0,112.48 -31.06,31.05 -81.43,31.05 -112.49,0 -31.05,-31.06 -31.05,-81.43 0,-112.48zm-580.35 -580.36c31.06,-31.05 81.43,-31.05 112.48,0 31.09,31.06 31.09,81.43 0,112.48 -31.05,31.06 -81.42,31.06 -112.48,0 -31.05,-31.05 -31.05,-81.42 0,-112.48zm-580.35 -580.35c31.09,-31.06 81.42,-31.06 112.48,0 31.05,31.05 31.05,81.42 0,112.48 -31.06,31.05 -81.39,31.05 -112.48,0 -31.06,-31.06 -31.06,-81.43 0,-112.48zm1674.53 1227.25c31.06,-31.05 81.4,-31.05 112.49,0 31.05,31.09 31.05,81.43 0,112.48 -31.09,31.06 -81.43,31.06 -112.49,0.04 -31.09,-31.09 -31.09,-81.43 0,-112.52zm-580.35 -580.35c31.05,-31.06 81.39,-31.06 112.48,0 31.06,31.09 31.06,81.42 0,112.48 -31.09,31.09 -81.43,31.09 -112.48,0 -31.06,-31.06 -31.06,-81.39 0,-112.48zm-580.35 -580.32c31.05,-31.09 81.42,-31.09 112.48,0 31.05,31.05 31.05,81.39 0,112.44 -31.06,31.1 -81.43,31.1 -112.48,0 -31.06,-31.05 -31.06,-81.39 0,-112.44zm1763.42 -789.72c-1303.65,-1095.06 -2494.22,-35.88 -2765.23,235.16 -271.04,271.01 -1330.2,1461.58 -235.14,2765.23 1137.51,1354.16 2877.39,681.84 3895.73,1355.7 41.92,27.74 97.45,22.28 133.01,-13.27l314.09 -314.1c35.52,-35.52 40.98,-91.07 13.27,-132.97 -673.89,-1018.37 -1.59,-2758.24 -1355.74,-3895.75z"/>
   </g>
   <path class="fil2" d="M2514.36 3241.16c-156.31,0 -307.99,-30.65 -450.8,-91.05 -137.94,-58.33 -261.76,-141.83 -368.08,-248.16 -106.35,-106.33 -189.83,-230.18 -248.18,-368.09 -60.42,-142.82 -91.03,-294.49 -91.03,-450.8 0,-156.31 30.62,-307.95 91.03,-450.81 58.35,-137.89 141.83,-261.74 248.18,-368.05 106.32,-106.35 230.15,-189.84 368.08,-248.18 142.81,-60.4 294.49,-91.05 450.8,-91.05 156.31,0 307.95,30.66 450.81,91.05 137.89,58.34 261.71,141.83 368.05,248.18 106.35,106.31 189.84,230.17 248.18,368.05 60.4,142.86 91.01,294.5 91.01,450.81 0,156.31 -30.62,307.98 -91.01,450.8 -58.34,137.92 -141.83,261.76 -248.18,368.09 -106.34,106.33 -230.17,189.83 -368.05,248.16 -142.86,60.41 -294.5,91.05 -450.81,91.05z"/>
   <path class="fil3" d="M1908.12 2233.79c62.47,101.53 170.4,261.65 253.89,366.84 39.38,49.64 109.3,54.24 155.26,10.61 264.33,-250.88 509.68,-567.4 803.45,-1005.68 17.05,-25.39 8.48,-59.98 -18.46,-74.43l0 0c-20.61,-11.05 -46.06,-6.92 -62.12,10.05 -325.92,345.08 -493.01,509.11 -817.29,778.92 0,0 -102.26,-64.96 -225.73,-164.65 -26.49,-21.37 -65.44,-16.55 -85.88,10.67l0 0c-14.84,19.76 -16.06,46.59 -3.1,67.66z"/>
  </g>
 </g>
</svg>
